HIERARCHY
ROOT Root
{
	OFFSET 0.00000 0.00000 0.00000
	CHANNELS 6 Xposition Yposition Zposition Zrotation Xrotation Yrotation
	JOINT Hips
	{
		OFFSET 0 0 0	
		CHANNELS 3 Zrotation Xrotation Yrotation
		JOINT Spine
		{
			OFFSET 0 4 0	
			CHANNELS 3 Zrotation Xrotation Yrotation
			JOINT Spine1
			{
				OFFSET 0 19.4 0	
				CHANNELS 3 Zrotation Xrotation Yrotation
				JOINT Spine2
				{
					OFFSET 0 16.6 0	
					CHANNELS 3 Zrotation Xrotation Yrotation
					JOINT LeftCollar
					{
						OFFSET 0 10 0	
						CHANNELS 3 Zrotation Xrotation Yrotation
						JOINT LeftArm
						{
							OFFSET 15.6 -2 3	
							CHANNELS 3 Zrotation Xrotation Yrotation
							JOINT LeftForeArm
							{
								OFFSET 3.5 -27 -1	
								CHANNELS 3 Zrotation Xrotation Yrotation
								JOINT LeftHand
								{
									OFFSET 1 -27 1	
									CHANNELS 3 Zrotation Xrotation Yrotation
									End Site
									{
										OFFSET 0 -15 0
									}
								}
							}
						}
					}
					JOINT RightCollar
					{
						OFFSET 0 10 0	
						CHANNELS 3 Zrotation Xrotation Yrotation
						JOINT RightArm
						{
							OFFSET -15.6 -2 3	
							CHANNELS 3 Zrotation Xrotation Yrotation
							JOINT RightForeArm
							{
								OFFSET -3.5 -27 -1	
								CHANNELS 3 Zrotation Xrotation Yrotation
								JOINT RightHand
								{
									OFFSET -1 -27 1	
									CHANNELS 3 Zrotation Xrotation Yrotation
									End Site
									{
										OFFSET 0 -15 0
									}
								}
							}
						}
					}
					JOINT Neck
					{
						OFFSET 0 10 0	
						CHANNELS 3 Zrotation Xrotation Yrotation
						JOINT Head
						{
							OFFSET 0 12.7 3	
							CHANNELS 3 Zrotation Xrotation Yrotation
							End Site
							{
								OFFSET 0 12.7 3
							}
						}
					}
				}
			}
		}
	}
	JOINT LeftHip
	{
		OFFSET 0 0 0	
		CHANNELS 3 Zrotation Xrotation Yrotation
		JOINT LeftUpLeg
		{
			OFFSET 8.8 -6 0	
			CHANNELS 3 Zrotation Xrotation Yrotation
			JOINT LeftLeg
			{
				OFFSET 0 -39 2	
				CHANNELS 3 Zrotation Xrotation Yrotation
				JOINT LeftFoot
				{
					OFFSET 0 -43 -2	
					CHANNELS 3 Zrotation Xrotation Yrotation
					JOINT LeftFootFront
					{
						OFFSET 0 -7 8.5	
						CHANNELS 3 Zrotation Xrotation Yrotation
						End Site
						{
							OFFSET 0 -0.5 9
						}
					}
				}
				JOINT LeftHeel
				{
					OFFSET 0 -43 -2	
					CHANNELS 3 Zrotation Xrotation Yrotation
					End Site
					{
						OFFSET 0 -7.5 -5
					}
				}
			}
		}
	}
	JOINT RightHip
	{
		OFFSET 0 0 0	
		CHANNELS 3 Zrotation Xrotation Yrotation
		JOINT RightUpLeg
		{
			OFFSET -8.8 -6 0	
			CHANNELS 3 Zrotation Xrotation Yrotation
			JOINT RightLeg
			{
				OFFSET 0 -39 2	
				CHANNELS 3 Zrotation Xrotation Yrotation
				JOINT RightFoot
				{
					OFFSET 0 -43 -2	
					CHANNELS 3 Zrotation Xrotation Yrotation
					JOINT RightFootFront
					{
						OFFSET 0 -7 8.5	
						CHANNELS 3 Zrotation Xrotation Yrotation
						End Site
						{
							OFFSET 0 -0.5 9
						}
					}
				}
				JOINT RightHeel
				{
					OFFSET 0 -43 -2	
					CHANNELS 3 Zrotation Xrotation Yrotation
					End Site
					{
						OFFSET 0 -7.5 -5
					}
				}
			}
		}
	}
}
MOTION
Frames: 26
Frame Time: 0.025
0 92.241 0 -0 0 -0 2.4632 42.813 -16.215 -2.2034 21.586 -5.7633 -2.2034 21.586 -5.7633 -1.9889 18.12 -4.8584 -0 0 -0 103.59 -61.988 85.476 -118.98 -18.152 -42.533 -0 0 -0 -0 0 -0 0.66273 -43.961 -9.2967 35.27 -33.36 28.01 -0 0 -0 6.2713 -43.683 13.863 6.2712 -43.683 13.863 2.4632 42.813 -16.215 -8.4778 -61.022 -27.019 -3.3919 13.253 3.2395 -0 0 -0 -0 0 -0 -0 0 -0 2.4632 42.813 -16.215 12.985 -43.031 -9.2942 -8.5347 3.3571 -25.355 -0 0 -0 -0 0 -0 -0 0 -0 
0 92.241 0 -0 0 -0 2.4248 42.768 -16.203 -2.1608 21.645 -5.7855 -2.1608 21.645 -5.7855 -1.9544 18.169 -4.8756 -0 0 -0 104.2 -62.084 85.9 -118.94 -18.355 -42.46 -0 0 -0 -0 0 -0 0.73023 -44.252 -9.3682 35.744 -33.364 28.386 -0 0 -0 6.2908 -43.723 13.84 6.2908 -43.723 13.84 2.4248 42.768 -16.203 -8.6973 -60.985 -27.453 -3.358 13.248 3.4335 -0 0 -0 -0 0 -0 -0 0 -0 2.4248 42.768 -16.203 13.01 -43.484 -10.614 -8.5627 3.9007 -24.301 -0 0 -0 -0 0 -0 -0 0 -0 
0 92.241 0 -0 0 -0 2.3771 42.703 -16.18 -2.117 21.713 -5.8064 -2.117 21.713 -5.8064 -1.919 18.227 -4.8918 -0 0 -0 105.02 -62.241 86.414 -118.9 -18.679 -42.309 -0 0 -0 -0 0 -0 0.87556 -44.566 -9.5002 36.356 -33.427 28.927 -0 0 -0 6.322 -43.762 13.789 6.322 -43.762 13.789 2.3771 42.703 -16.18 -8.9203 -61.004 -27.949 -3.3973 13.294 3.8534 -0 0 -0 -0 0 -0 -0 0 -0 2.3771 42.703 -16.18 12.998 -44.137 -12.481 -8.6335 4.6872 -22.851 -0 0 -0 -0 0 -0 -0 0 -0 
0 92.241 0 -0 0 -0 2.3533 42.64 -16.134 -2.0812 21.768 -5.8323 -2.0812 21.768 -5.8323 -1.8902 18.273 -4.9123 -0 0 -0 105.79 -62.448 86.863 -118.84 -19.064 -42.107 -0 0 -0 -0 0 -0 1.0946 -44.784 -9.6245 36.881 -33.589 29.439 -0 0 -0 6.3494 -43.781 13.718 6.3494 -43.781 13.718 2.3533 42.64 -16.134 -9.2283 -61.138 -28.318 -3.4717 13.476 4.1811 -0 0 -0 -0 0 -0 -0 0 -0 2.3533 42.64 -16.134 12.87 -44.877 -14.422 -8.7264 5.5616 -21.496 -0 0 -0 -0 0 -0 -0 0 -0 
0 92.241 0 -0 0 -0 2.3665 42.587 -16.063 -2.0486 21.814 -5.8735 -2.0486 21.814 -5.8735 -1.8644 18.312 -4.9457 -0 0 -0 106.44 -62.702 87.266 -118.71 -19.448 -41.902 -0 0 -0 -0 0 -0 1.3845 -44.949 -9.6873 37.255 -33.833 29.829 -0 0 -0 6.3692 -43.794 13.64 6.3692 -43.794 13.64 2.3665 42.587 -16.063 -9.7211 -61.361 -28.568 -3.5089 13.793 4.1591 -0 0 -0 -0 0 -0 -0 0 -0 2.3665 42.587 -16.063 12.552 -45.675 -16.204 -8.7639 6.5384 -20.635 -0 0 -0 -0 0 -0 -0 0 -0 
0 92.241 0 -0 0 -0 2.3889 42.526 -16.01 -2.0362 21.852 -5.9096 -2.0362 21.852 -5.9096 -1.8554 18.344 -4.9754 -0 0 -0 106.85 -62.971 87.522 -118.52 -19.764 -41.73 -0 0 -0 -0 0 -0 1.7386 -45.074 -9.6572 37.471 -34.121 30.058 -0 0 -0 6.3917 -43.792 13.573 6.3917 -43.792 13.573 2.3889 42.526 -16.01 -10.071 -61.524 -28.73 -3.5853 14.04 4.056 -0 0 -0 -0 0 -0 -0 0 -0 2.3889 42.526 -16.01 12.1 -46.41 -17.569 -8.677 7.5597 -20.351 -0 0 -0 -0 0 -0 -0 0 -0 
0 92.241 0 -0 0 -0 2.4034 42.444 -16.032 -2.0606 21.862 -5.917 -2.0606 21.862 -5.917 -1.876 18.352 -4.9822 -0 0 -0 106.83 -63.24 87.425 -118.27 -19.966 -41.625 -0 0 -0 -0 0 -0 2.1052 -45.104 -9.5331 37.525 -34.403 30.072 -0 0 -0 6.4146 -43.747 13.529 6.4146 -43.747 13.529 2.4034 42.444 -16.032 -10.071 -61.607 -28.748 -3.7279 14.151 4.1052 -0 0 -0 -0 0 -0 -0 0 -0 2.4034 42.444 -16.032 11.676 -46.966 -18.379 -8.5283 8.3608 -20.041 -0 0 -0 -0 0 -0 -0 0 -0 
0 92.241 0 -0 0 -0 2.4142 42.374 -16.119 -2.1081 21.816 -5.9 -2.1081 21.816 -5.9 -1.9148 18.313 -4.9694 -0 0 -0 106.3 -63.505 86.903 -118 -20.034 -41.6 -0 0 -0 -0 0 -0 2.4051 -44.999 -9.3604 37.445 -34.621 29.867 -0 0 -0 6.4335 -43.64 13.507 6.4335 -43.64 13.507 2.4142 42.374 -16.119 -9.8152 -61.665 -28.635 -3.8497 14.151 4.3088 -0 0 -0 -0 0 -0 -0 0 -0 2.4142 42.374 -16.119 11.392 -47.345 -18.741 -8.3777 8.9136 -19.501 -0 0 -0 -0 0 -0 -0 0 -0 
0 92.241 0 -0 0 -0 2.419 42.341 -16.227 -2.1539 21.729 -5.8768 -2.1539 21.729 -5.8768 -1.9517 18.24 -4.9514 -0 0 -0 105.44 -63.722 86.137 -117.76 -19.974 -41.653 -0 0 -0 -0 0 -0 2.5929 -44.825 -9.2029 37.311 -34.733 29.527 -0 0 -0 6.4485 -43.508 13.498 6.4485 -43.508 13.498 2.419 42.341 -16.227 -9.4921 -61.724 -28.443 -3.8798 14.096 4.5436 -0 0 -0 -0 0 -0 -0 0 -0 2.419 42.341 -16.227 11.269 -47.575 -18.779 -8.256 9.3185 -18.773 -0 0 -0 -0 0 -0 -0 0 -0 
0 92.241 0 -0 0 -0 2.4051 42.308 -16.317 -2.1864 21.623 -5.8574 -2.1864 21.623 -5.8574 -1.9775 18.15 -4.9362 -0 0 -0 104.37 -63.875 85.203 -117.59 -19.825 -41.784 -0 0 -0 -0 0 -0 2.651 -44.612 -9.1113 37.193 -34.742 29.178 -0 0 -0 6.4438 -43.363 13.483 6.4438 -43.363 13.483 2.4051 42.308 -16.317 -9.1725 -61.751 -28.118 -3.8096 14.02 4.6152 -0 0 -0 -0 0 -0 -0 0 -0 2.4051 42.308 -16.317 11.325 -47.662 -18.459 -8.1674 9.6952 -18.124 -0 0 -0 -0 0 -0 -0 0 -0 
0 92.241 0 -0 0 -0 2.2615 42.196 -16.267 -2.1917 21.545 -5.8382 -2.1917 21.545 -5.8383 -1.9809 18.085 -4.9205 -0 0 -0 103.27 -63.971 84.169 -117.53 -19.677 -41.999 -0 0 -0 -0 0 -0 2.6313 -44.379 -9.079 37.11 -34.693 28.907 -0 0 -0 6.4241 -43.212 13.434 6.4241 -43.212 13.434 2.2615 42.196 -16.267 -8.7988 -61.636 -27.644 -3.671 13.923 4.4009 -0 0 -0 -0 0 -0 -0 0 -0 2.2615 42.196 -16.267 11.603 -47.593 -17.796 -8.0906 10.083 -17.987 -0 0 -0 -0 0 -0 -0 0 -0 
0 92.241 0 -0 0 -0 1.9239 41.969 -15.988 -2.1506 21.563 -5.8188 -2.1506 21.563 -5.8188 -1.9462 18.1 -4.9032 -0 0 -0 102.59 -64.02 83.419 -117.55 -19.634 -42.299 -0 0 -0 -0 0 -0 2.5937 -44.261 -9.0937 37.04 -34.621 28.731 -0 0 -0 6.3972 -43.109 13.332 6.3972 -43.109 13.332 1.9239 41.969 -15.988 -8.4497 -61.304 -27.199 -3.4369 13.789 3.9465 -0 0 -0 -0 0 -0 -0 0 -0 1.9239 41.969 -15.988 12.022 -47.386 -16.953 -7.9833 10.479 -18.269 -0 0 -0 -0 0 -0 -0 0 -0 
0 92.241 0 -0 0 -0 1.6281 41.765 -15.663 -2.1093 21.575 -5.8239 -2.1093 21.575 -5.8239 -1.9121 18.11 -4.9064 -0 0 -0 102.22 -64.013 82.867 -117.64 -19.728 -42.642 -0 0 -0 -0 0 -0 2.6035 -44.173 -9.0777 36.95 -34.52 28.618 -0 0 -0 6.388 -42.989 13.212 6.388 -42.989 13.212 1.6281 41.765 -15.663 -8.333 -60.926 -26.956 -3.0584 13.578 3.3037 -0 0 -0 -0 0 -0 -0 0 -0 1.6281 41.765 -15.663 12.373 -47.253 -16.01 -7.8177 10.935 -18.736 -0 0 -0 -0 0 -0 -0 0 -0 
0 92.241 0 -0 0 -0 1.3769 41.564 -15.338 -2.0718 21.566 -5.8512 -2.0718 21.566 -5.8512 -1.8815 18.103 -4.9281 -0 0 -0 102.03 -63.96 82.501 -117.74 -19.901 -42.959 -0 0 -0 -0 0 -0 2.6438 -44.071 -9.02 36.829 -34.388 28.543 -0 0 -0 6.3801 -42.832 13.104 6.3801 -42.832 13.104 1.3769 41.564 -15.338 -8.3269 -60.532 -26.95 -2.5984 13.299 2.4933 -0 0 -0 -0 0 -0 -0 0 -0 1.3769 41.564 -15.338 12.582 -47.239 -15.059 -7.5947 11.531 -19.5 -0 0 -0 -0 0 -0 -0 0 -0 
0 92.241 0 -0 0 -0 1.095 41.263 -14.972 -2.0283 21.576 -5.871 -2.0283 21.576 -5.871 -1.8459 18.112 -4.9434 -0 0 -0 101.97 -63.937 82.346 -117.82 -20.067 -43.199 -0 0 -0 -0 0 -0 2.6531 -43.947 -9.022 36.688 -34.232 28.501 -0 0 -0 6.3357 -42.65 12.98 6.3357 -42.649 12.98 1.095 41.263 -14.972 -8.2623 -60.084 -27.138 -2.1822 13.047 1.5592 -0 0 -0 -0 0 -0 -0 0 -0 1.095 41.263 -14.972 12.664 -47.302 -14.201 -7.2957 12.347 -20.802 -0 0 -0 -0 0 -0 -0 0 -0 
0 92.241 0 -0 0 -0 0.82742 40.845 -14.577 -1.9893 21.602 -5.8745 -1.9893 21.602 -5.8745 -1.8137 18.134 -4.9452 -0 0 -0 101.95 -63.997 82.317 -117.87 -20.175 -43.319 -0 0 -0 -0 0 -0 2.6167 -43.786 -9.1657 36.538 -34.049 28.478 -0 0 -0 6.2415 -42.44 12.8 6.2415 -42.44 12.8 0.82742 40.845 -14.577 -8.1688 -59.626 -27.413 -1.9 12.911 0.71495 -0 0 -0 -0 0 -0 -0 0 -0 0.82742 40.845 -14.577 12.625 -47.459 -13.487 -6.9446 13.411 -22.149 -0 0 -0 -0 0 -0 -0 0 -0 
0 92.241 0 -0 0 -0 0.63235 40.355 -14.186 -1.9667 21.628 -5.8791 -1.9667 21.628 -5.8791 -1.7952 18.156 -4.9485 -0 0 -0 101.92 -64.108 82.32 -117.89 -20.245 -43.296 -0 0 -0 -0 0 -0 2.5703 -43.648 -9.4166 36.366 -33.784 28.41 -0 0 -0 6.1149 -42.208 12.587 6.1149 -42.208 12.587 0.63235 40.355 -14.186 -8.0681 -59.226 -27.645 -1.8221 12.911 0.21036 -0 0 -0 -0 0 -0 -0 0 -0 0.63235 40.355 -14.186 12.475 -47.73 -12.989 -6.656 14.701 -22.553 -0 0 -0 -0 0 -0 -0 0 -0 
0 92.241 0 -0 0 -0 0.485 39.832 -13.792 -1.9458 21.672 -5.923 -1.9458 21.672 -5.923 -1.7792 18.193 -4.9844 -0 0 -0 101.92 -64.176 82.408 -117.86 -20.311 -43.132 -0 0 -0 -0 0 -0 2.5427 -43.639 -9.6179 36.154 -33.44 28.229 -0 0 -0 6.0001 -41.996 12.421 6.0001 -41.996 12.421 0.485 39.832 -13.792 -7.914 -58.895 -27.781 -1.9887 13.036 0.069727 -0 0 -0 -0 0 -0 -0 0 -0 0.485 39.832 -13.792 12.189 -48.087 -12.878 -6.5398 16.225 -21.688 -0 0 -0 -0 0 -0 -0 0 -0 
0 92.241 0 -0 0 -0 0.31402 39.273 -13.351 -1.9036 21.773 -6.0243 -1.9036 21.773 -6.0243 -1.7475 18.278 -5.0675 -0 0 -0 101.96 -64.154 82.627 -117.79 -20.368 -42.86 -0 0 -0 -0 0 -0 2.5286 -43.668 -9.6353 35.937 -33.214 27.983 -0 0 -0 5.9414 -41.848 12.358 5.9414 -41.848 12.358 0.31402 39.273 -13.351 -7.6611 -58.593 -27.741 -2.3706 13.26 0.16352 -0 0 -0 -0 0 -0 -0 0 -0 0.31402 39.273 -13.351 11.707 -48.449 -13.236 -6.5244 17.875 -20.197 -0 0 -0 -0 0 -0 -0 0 -0 
0 92.241 0 -0 0 -0 0.066686 38.663 -12.857 -1.8392 21.942 -6.1648 -1.8392 21.942 -6.1648 -1.6989 18.42 -5.1824 -0 0 -0 101.92 -64.066 82.831 -117.68 -20.397 -42.536 -0 0 -0 -0 0 -0 2.5609 -43.746 -9.4928 35.69 -33.097 27.741 -0 0 -0 5.9632 -41.769 12.403 5.9632 -41.769 12.403 0.066686 38.663 -12.857 -7.2494 -58.275 -27.373 -2.8951 13.508 0.39926 -0 0 -0 -0 0 -0 -0 0 -0 0.066686 38.663 -12.857 11.073 -48.647 -14.361 -6.581 19.337 -18.625 -0 0 -0 -0 0 -0 -0 0 -0 
0 92.241 0 -0 0 -0 -0.26336 38.034 -12.344 -1.7759 22.132 -6.3107 -1.776 22.132 -6.3107 -1.6516 18.58 -5.3017 -0 0 -0 101.57 -63.986 82.723 -117.51 -20.4 -42.256 -0 0 -0 -0 0 -0 2.685 -43.811 -9.2646 35.473 -33.001 27.617 -0 0 -0 6.0687 -41.709 12.532 6.0687 -41.709 12.532 -0.26336 38.034 -12.344 -6.6794 -57.91 -26.636 -3.448 13.676 0.6794 -0 0 -0 -0 0 -0 -0 0 -0 -0.26336 38.034 -12.344 10.612 -48.643 -16.589 -6.958 20.342 -17.08 -0 0 -0 -0 0 -0 -0 0 -0 
0 92.241 0 -0 0 -0 -0.65284 37.475 -11.849 -1.7433 22.299 -6.4115 -1.7433 22.299 -6.4115 -1.6284 18.72 -5.3844 -0 0 -0 101.01 -63.968 82.282 -117.28 -20.396 -42.16 -0 0 -0 -0 0 -0 2.9284 -43.806 -9.0541 35.302 -32.919 27.615 -0 0 -0 6.24 -41.64 12.674 6.24 -41.64 12.674 -0.65284 37.475 -11.849 -6.0803 -57.501 -25.694 -3.854 13.683 0.85575 -0 0 -0 -0 0 -0 -0 0 -0 -0.65284 37.475 -11.849 10.497 -48.501 -18.929 -7.3398 20.957 -16.08 -0 0 -0 -0 0 -0 -0 0 -0 
0 92.241 0 -0 0 -0 -1.0774 37.042 -11.404 -1.7609 22.449 -6.4344 -1.7609 22.449 -6.4344 -1.6449 18.847 -5.4035 -0 0 -0 100.7 -63.889 81.854 -117.14 -20.492 -42.213 -0 0 -0 -0 0 -0 3.3113 -43.836 -8.8906 35.142 -32.846 27.627 -0 0 -0 6.4649 -41.588 12.777 6.4649 -41.588 12.777 -1.0774 37.042 -11.404 -5.5546 -57.079 -24.754 -3.9941 13.531 0.8286 -0 0 -0 -0 0 -0 -0 0 -0 -1.0774 37.042 -11.404 10.515 -48.136 -19.895 -7.0327 21.62 -15.895 -0 0 -0 -0 0 -0 -0 0 -0 
0 92.241 0 -0 0 -0 -1.4639 36.774 -11.068 -1.8387 22.582 -6.3918 -1.8387 22.582 -6.3918 -1.7094 18.957 -5.37 -0 0 -0 100.76 -63.702 81.643 -117.1 -20.658 -42.337 -0 0 -0 -0 0 -0 3.7892 -44.006 -8.6935 34.976 -32.78 27.497 -0 0 -0 6.7134 -41.573 12.835 6.7134 -41.573 12.835 -1.4639 36.774 -11.068 -5.0613 -56.741 -23.875 -3.9147 13.267 0.62893 -0 0 -0 -0 0 -0 -0 0 -0 -1.4639 36.774 -11.068 10.651 -47.897 -19.511 -6.2362 23 -15.783 -0 0 -0 -0 0 -0 -0 0 -0 
0 92.241 0 -0 0 -0 -1.8311 36.636 -10.785 -1.9405 22.704 -6.3222 -1.9405 22.704 -6.3222 -1.7931 19.06 -5.3147 -0 0 -0 101.06 -63.424 81.703 -117.11 -20.805 -42.475 -0 0 -0 -0 0 -0 4.2314 -44.318 -8.3732 34.822 -32.765 27.12 -0 0 -0 6.9334 -41.581 12.858 6.9334 -41.581 12.858 -1.8311 36.636 -10.785 -4.5028 -56.482 -23.061 -3.7068 12.902 0.39036 -0 0 -0 -0 0 -0 -0 0 -0 -1.8311 36.636 -10.785 11.065 -48.002 -17.935 -5.0165 25.52 -16.411 -0 0 -0 -0 0 -0 -0 0 -0 
0 92.241 0 -0 0 -0 -2.3826 36.434 -10.336 -1.9931 22.883 -6.2378 -1.9931 22.883 -6.2378 -1.8357 19.21 -5.2456 -0 0 -0 101.48 -63.13 81.995 -117.15 -20.912 -42.581 -0 0 -0 -0 0 -0 4.4927 -44.678 -7.9747 34.735 -32.854 26.548 -0 0 -0 7.0882 -41.598 12.823 7.0882 -41.598 12.823 -2.3826 36.434 -10.336 -3.854 -56.058 -22.397 -3.3718 12.458 0.10001 -0 0 -0 -0 0 -0 -0 0 -0 -2.3826 36.434 -10.336 11.88 -48.184 -15.485 -3.1478 29.171 -18.759 -0 0 -0 -0 0 -0 -0 0 -0 
